<svg width="16" height="16" viewBox="0 0 16 16" fill="none" xmlns="http://www.w3.org/2000/svg">
<path d="M10.6663 1.66699C10.7547 1.66699 10.8401 1.70214 10.9026 1.76465C10.9652 1.82716 11.0003 1.91257 11.0003 2.00098V3.00098H12.6663C13.1083 3.00098 13.5325 3.1767 13.845 3.48926C14.1574 3.80173 14.3332 4.22516 14.3333 4.66699V12.667C14.3333 13.109 14.1576 13.5331 13.845 13.8457C13.5325 14.1583 13.1083 14.334 12.6663 14.334H3.33331C2.89129 14.334 2.46716 14.1583 2.1546 13.8457C1.84214 13.5332 1.66632 13.1089 1.66632 12.667V4.66699C1.66641 4.22524 1.84232 3.80171 2.1546 3.48926C2.46716 3.1767 2.89129 3.00098 3.33331 3.00098H5.00031V2.00098C5.00031 1.91257 5.03545 1.82716 5.09796 1.76465C5.14477 1.71797 5.204 1.68662 5.26788 1.67383L5.33331 1.66699C5.42157 1.66699 5.50618 1.70234 5.56866 1.76465C5.63118 1.82716 5.66632 1.91257 5.66632 2.00098V3.00098H10.3333V2.00098C10.3333 1.91257 10.3685 1.82716 10.431 1.76465C10.4934 1.70231 10.5781 1.66708 10.6663 1.66699ZM2.33331 12.667C2.33331 12.9321 2.43885 13.1865 2.62628 13.374C2.81382 13.5616 3.0681 13.667 3.33331 13.667H12.6663C12.9315 13.667 13.1858 13.5616 13.3734 13.374C13.5609 13.1865 13.6663 12.9322 13.6663 12.667V7.66699H2.33331V12.667ZM3.33331 3.66699C3.06817 3.66699 2.8138 3.77253 2.62628 3.95996C2.43882 4.14742 2.3334 4.40189 2.33331 4.66699V7.00098H13.6663V4.66699C13.6662 4.40189 13.5608 4.14742 13.3734 3.95996C13.1858 3.77263 12.9314 3.66699 12.6663 3.66699H11.0003V4.66699C11.0003 4.7554 10.9652 4.84081 10.9026 4.90332C10.8401 4.96583 10.7547 5.00098 10.6663 5.00098C10.5781 5.00089 10.4934 4.96565 10.431 4.90332C10.3685 4.84081 10.3333 4.7554 10.3333 4.66699V3.66699H5.66632V4.66699C5.66632 4.7554 5.63118 4.84081 5.56866 4.90332C5.50618 4.96563 5.42157 5.00098 5.33331 5.00098C5.24506 5.00098 5.16044 4.96563 5.09796 4.90332C5.03545 4.84081 5.00031 4.7554 5.00031 4.66699V3.66699H3.33331Z" fill="black" stroke="#8A94A2" stroke-width="0.666667"/>
</svg>
