<svg width="24" height="24" viewBox="0 0 24 24" fill="none" xmlns="http://www.w3.org/2000/svg">
<path d="M10.5 20.501H13.5V15.501H10.5V20.501ZM5.2168 3.8125L3.53613 7.96289L3.49609 8.0625L3.5 8.16895C3.51231 8.4972 3.58957 8.82058 3.72656 9.11914C3.86354 9.41753 4.05813 9.68588 4.29883 9.90918C4.78518 10.3604 5.4308 10.6001 6.09375 10.5752C6.42199 10.5629 6.74442 10.4856 7.04297 10.3486C7.34153 10.2116 7.61058 10.0172 7.83398 9.77637C8.05726 9.53561 8.2315 9.25317 8.3457 8.94531C8.45765 8.64342 8.50959 8.32269 8.5 8.00098C8.5 7.86837 8.55272 7.74025 8.64648 7.64648C8.74023 7.55287 8.86751 7.50098 9 7.50098C9.13249 7.50098 9.25977 7.55287 9.35352 7.64648C9.44728 7.74025 9.5 7.86837 9.5 8.00098C9.50013 8.66385 9.76369 9.29983 10.2324 9.76855C10.7012 10.2372 11.3371 10.501 12 10.501C12.6629 10.501 13.2988 10.2372 13.7676 9.76855C14.2363 9.29983 14.4999 8.66385 14.5 8.00098C14.5 7.86837 14.5527 7.74025 14.6465 7.64648C14.7402 7.55287 14.8675 7.50098 15 7.50098C15.1325 7.50098 15.2598 7.55287 15.3535 7.64648C15.4473 7.74025 15.5 7.86837 15.5 8.00098C15.5001 8.66385 15.7637 9.29983 16.2324 9.76855C16.7012 10.2372 17.3371 10.5 18 10.5C18.6312 10.5014 19.2397 10.2645 19.7031 9.83594C20.1668 9.40702 20.4515 8.81833 20.499 8.18848L20.5078 8.07129L20.4639 7.96289L18.7832 3.8125L18.6572 3.50098H5.34277L5.2168 3.8125ZM18.5 11.5029L18.0029 11.501C17.5046 11.4982 17.0123 11.3889 16.5596 11.1807C16.1069 10.9724 15.7043 10.6695 15.3779 10.293L15.0029 9.86133L14.625 10.29C14.2966 10.6623 13.8929 10.9608 13.4404 11.165C12.9878 11.3693 12.4966 11.4746 12 11.4746C11.5034 11.4746 11.0122 11.3693 10.5596 11.165C10.1071 10.9608 9.70337 10.6623 9.375 10.29L8.99707 9.86133L8.62207 10.293C8.29573 10.6695 7.89306 10.9724 7.44043 11.1807C6.98773 11.3889 6.49535 11.4982 5.99707 11.501L5.5 11.5029V20.501H9.5V15.001C9.5 14.8684 9.55272 14.7403 9.64648 14.6465C9.74023 14.5529 9.86751 14.501 10 14.501H14C14.1325 14.501 14.2598 14.5529 14.3535 14.6465C14.4473 14.7403 14.5 14.8684 14.5 15.001V20.501H18.5V11.5029ZM4.5 11.1113L4.25 10.9678C3.72611 10.6654 3.28912 10.2323 2.98242 9.71094C2.68873 9.21166 2.52495 8.64736 2.50293 8.06934L2.58105 7.94043L2.56836 7.78223C2.56705 7.76501 2.56847 7.74773 2.56836 7.73047L4.53418 2.81641V2.81543C4.57122 2.72242 4.63588 2.64307 4.71875 2.58691C4.78087 2.54483 4.85122 2.5169 4.9248 2.50586L5 2.50098H19.0176L19.0352 2.49902C19.1411 2.49163 19.2471 2.51859 19.3369 2.5752C19.4266 2.63183 19.4962 2.71576 19.5352 2.81445L19.5361 2.81641L21.501 7.72852C21.5009 7.74644 21.5023 7.76434 21.501 7.78223L21.4971 7.84082L21.5059 7.89844C21.5071 7.90655 21.5071 7.91474 21.5059 7.92285L21.5 7.95996V7.99707C21.4963 8.60787 21.3324 9.2073 21.0254 9.73535C20.7184 10.2634 20.279 10.7024 19.75 11.0078L19.5 11.1514V21.001C19.4999 21.1334 19.4472 21.2608 19.3535 21.3545C19.2598 21.4481 19.1325 21.501 19 21.501H5C4.8675 21.501 4.74023 21.4481 4.64648 21.3545C4.55283 21.2608 4.50013 21.1334 4.5 21.001V11.1113Z" fill="black" stroke="#F76627"/>
</svg>
