<svg width="20" height="20" viewBox="0 0 20 20" fill="none" xmlns="http://www.w3.org/2000/svg">
<path d="M15.8333 9.16732H10.8333V4.16732C10.8333 3.9463 10.7455 3.73434 10.5893 3.57806C10.433 3.42178 10.221 3.33398 10 3.33398C9.77899 3.33398 9.56703 3.42178 9.41075 3.57806C9.25447 3.73434 9.16667 3.9463 9.16667 4.16732V9.16732H4.16667C3.94565 9.16732 3.73369 9.25512 3.57741 9.4114C3.42113 9.56768 3.33333 9.77964 3.33333 10.0007C3.33333 10.2217 3.42113 10.4336 3.57741 10.5899C3.73369 10.7462 3.94565 10.834 4.16667 10.834H9.16667V15.834C9.16667 16.055 9.25447 16.267 9.41075 16.4232C9.56703 16.5795 9.77899 16.6673 10 16.6673C10.221 16.6673 10.433 16.5795 10.5893 16.4232C10.7455 16.267 10.8333 16.055 10.8333 15.834V10.834H15.8333C16.0543 10.834 16.2663 10.7462 16.4226 10.5899C16.5789 10.4336 16.6667 10.2217 16.6667 10.0007C16.6667 9.77964 16.5789 9.56768 16.4226 9.4114C16.2663 9.25512 16.0543 9.16732 15.8333 9.16732Z" fill="white"/>
</svg>
