<svg width="24" height="24" viewBox="0 0 24 24" fill="none" xmlns="http://www.w3.org/2000/svg">
<path d="M10.7467 2.48145C12.9197 2.42201 15.033 3.19766 16.6519 4.64844C18.2707 6.09913 19.2725 8.11489 19.4508 10.2812C19.629 12.4478 18.97 14.601 17.61 16.2969L17.3287 16.6475L17.648 16.9648L21.3492 20.6367H21.3502C21.4403 20.7299 21.4908 20.8547 21.4908 20.9844C21.4908 21.113 21.4409 21.2361 21.3521 21.3291C21.3061 21.3749 21.2519 21.4116 21.192 21.4365C21.1311 21.4619 21.0655 21.4756 20.9996 21.4756C20.9337 21.4755 20.868 21.4619 20.8072 21.4365C20.7465 21.4111 20.6915 21.3739 20.6451 21.3271L20.6432 21.3262L16.9635 17.6455L16.6471 17.3291L16.2975 17.6094C14.6016 18.9695 12.4484 19.6284 10.2818 19.4502C8.11547 19.2719 6.09971 18.2701 4.64902 16.6514C3.19824 15.0325 2.42259 12.9191 2.48203 10.7461C2.54149 8.57304 3.43119 6.50493 4.96835 4.96777C6.50551 3.43061 8.57362 2.54091 10.7467 2.48145ZM13.8697 4.07031C12.4994 3.50277 10.9914 3.35419 9.53671 3.64355C8.0819 3.93296 6.74574 4.64742 5.69687 5.69629C4.648 6.74516 3.93354 8.08132 3.64413 9.53613C3.35477 10.9909 3.50335 12.4988 4.07089 13.8691C4.63855 15.2396 5.60022 16.4112 6.83359 17.2354C8.0668 18.0593 9.51647 18.4989 10.9996 18.499C12.9887 18.499 14.8968 17.7093 16.3033 16.3027C17.7098 14.8962 18.4996 12.9881 18.4996 10.999C18.4995 9.51589 18.0599 8.06622 17.2359 6.83301C16.4118 5.59964 15.2402 4.63797 13.8697 4.07031Z" fill="black" stroke="black"/>
</svg>
