<svg width="24" height="24" viewBox="0 0 24 24" fill="none" xmlns="http://www.w3.org/2000/svg">
<path d="M2.8103 16.543C2.93201 16.493 3.06849 16.493 3.19019 16.543L3.19897 16.5459C3.25688 16.5684 3.30946 16.6026 3.35522 16.6445C3.37503 16.6661 3.39424 16.6883 3.40991 16.7129L3.45386 16.8008L3.45874 16.8135C3.49703 16.9045 3.5077 17.0055 3.48901 17.1025C3.47119 17.1947 3.42693 17.2791 3.36304 17.3477C3.31044 17.3936 3.25172 17.432 3.18726 17.459L3.17749 17.4629C3.12157 17.4875 3.06087 17.5 2.99976 17.5C2.93858 17.5 2.87798 17.4876 2.82202 17.4629L2.81323 17.459L2.7146 17.4072C2.68694 17.3896 2.66123 17.3693 2.63647 17.3477C2.57268 17.2791 2.52829 17.1947 2.5105 17.1025C2.49181 17.0055 2.50248 16.9045 2.54077 16.8135L2.54663 16.8008C2.56909 16.7429 2.60142 16.6893 2.64331 16.6436C2.68912 16.6015 2.74253 16.5684 2.80054 16.5459L2.8103 16.543ZM6.99976 16.5H20.9998C21.1323 16.5 21.2595 16.5528 21.3533 16.6465C21.447 16.7403 21.4998 16.8674 21.4998 17C21.4998 17.1326 21.447 17.2597 21.3533 17.3535C21.2595 17.4472 21.1323 17.5 20.9998 17.5H6.99976C6.86723 17.4999 6.73995 17.4472 6.64624 17.3535C6.55255 17.2598 6.49976 17.1326 6.49976 17C6.49976 16.8674 6.55255 16.7402 6.64624 16.6465C6.73995 16.5528 6.86723 16.5001 6.99976 16.5ZM3.10229 11.5107C3.1954 11.5287 3.28141 11.5728 3.35034 11.6377C3.39505 11.6849 3.43036 11.7402 3.45386 11.8008L3.45776 11.8115L3.46265 11.8223C3.48738 11.8783 3.49976 11.9388 3.49976 12C3.49976 12.0306 3.49724 12.0611 3.49097 12.0908L3.46265 12.1777L3.45874 12.1875C3.43312 12.2487 3.39607 12.3039 3.35327 12.3545C3.30291 12.3968 3.24805 12.4336 3.18726 12.459L3.17749 12.4629C3.12157 12.4875 3.06087 12.5 2.99976 12.5C2.93858 12.5 2.87798 12.4876 2.82202 12.4629L2.81323 12.459L2.7146 12.4072C2.6893 12.3911 2.6662 12.372 2.64331 12.3525C2.60164 12.3027 2.56688 12.2475 2.54175 12.1875L2.53687 12.1777C2.51218 12.1218 2.49976 12.0612 2.49976 12C2.49976 11.9388 2.51218 11.8782 2.53687 11.8223L2.54663 11.8008C2.56825 11.7451 2.59972 11.694 2.6394 11.6494C2.6913 11.6047 2.74994 11.5675 2.81323 11.541H2.81421C2.90518 11.5028 3.00541 11.4921 3.10229 11.5107ZM6.99976 11.5H20.9998C21.1323 11.5 21.2595 11.5528 21.3533 11.6465C21.447 11.7403 21.4998 11.8674 21.4998 12C21.4998 12.1326 21.447 12.2597 21.3533 12.3535C21.2595 12.4472 21.1323 12.5 20.9998 12.5H6.99976C6.86723 12.4999 6.73995 12.4472 6.64624 12.3535C6.55254 12.2598 6.49976 12.1326 6.49976 12C6.49976 11.8674 6.55254 11.7402 6.64624 11.6465C6.73995 11.5528 6.86723 11.5001 6.99976 11.5ZM6.99976 6.5H20.9998C21.1323 6.5 21.2595 6.55279 21.3533 6.64648C21.447 6.74025 21.4998 6.86739 21.4998 7C21.4998 7.13261 21.447 7.25975 21.3533 7.35352C21.2595 7.44721 21.1323 7.5 20.9998 7.5H6.99976C6.86723 7.49994 6.73995 7.44723 6.64624 7.35352C6.55254 7.25976 6.49976 7.13255 6.49976 7C6.49976 6.86745 6.55254 6.74024 6.64624 6.64648C6.73995 6.55277 6.86723 6.50006 6.99976 6.5ZM2.89819 6.51074C2.9707 6.49684 3.04501 6.49947 3.11597 6.51758L3.18628 6.54102L3.19897 6.5459C3.25494 6.5676 3.30564 6.60071 3.35034 6.64062C3.39482 6.69232 3.4324 6.74952 3.45874 6.8125L3.46265 6.82227C3.48738 6.87827 3.49976 6.93878 3.49976 7C3.49976 7.03059 3.49724 7.06105 3.49097 7.09082L3.46265 7.17773L3.45874 7.1875C3.43159 7.25241 3.3928 7.3114 3.34644 7.36426C3.27803 7.42757 3.19403 7.47157 3.10229 7.48926C3.00541 7.50792 2.90518 7.49717 2.81421 7.45898H2.81323C2.75124 7.43308 2.69441 7.39603 2.64331 7.35254C2.60164 7.30267 2.56688 7.24754 2.54175 7.1875L2.53687 7.17773C2.51218 7.12178 2.49976 7.06116 2.49976 7L2.50952 6.90918C2.51579 6.87947 2.52454 6.8502 2.53687 6.82227H2.53784L2.54175 6.8125C2.56859 6.74838 2.60551 6.6891 2.65112 6.63672C2.71985 6.57248 2.80564 6.52857 2.89819 6.51074Z" fill="black" stroke="#F76627"/>
</svg>
