<svg width="24" height="24" viewBox="0 0 24 24" fill="none" xmlns="http://www.w3.org/2000/svg">
<path d="M5 3.5H15C15.663 3.5 16.2987 3.76358 16.7676 4.23242C17.2364 4.70126 17.5 5.33696 17.5 6V7.5H19C19.663 7.5 20.2987 7.76358 20.7676 8.23242C21.2364 8.70126 21.5 9.33696 21.5 10V18C21.5 18.663 21.2364 19.2987 20.7676 19.7676C20.2987 20.2364 19.663 20.5 19 20.5H5C4.33696 20.5 3.70126 20.2364 3.23242 19.7676C2.76358 19.2987 2.5 18.663 2.5 18V6C2.5 5.33696 2.76358 4.70126 3.23242 4.23242C3.70126 3.76358 4.33696 3.5 5 3.5ZM3.5 18C3.5 18.3978 3.65815 18.7792 3.93945 19.0605C4.22076 19.3419 4.60218 19.5 5 19.5H19C19.3978 19.5 19.7792 19.3419 20.0605 19.0605C20.3419 18.7792 20.5 18.3978 20.5 18V16.5H19C18.337 16.5 17.7013 16.2364 17.2324 15.7676C16.7636 15.2987 16.5 14.663 16.5 14C16.5 13.337 16.7636 12.7013 17.2324 12.2324C17.7013 11.7636 18.337 11.5 19 11.5H20.5V10C20.5 9.60218 20.3419 9.22076 20.0605 8.93945C19.7792 8.65815 19.3978 8.5 19 8.5H4.99902C4.71533 8.50039 4.43363 8.45253 4.16602 8.3584L3.5 8.12402V18ZM19 12.5C18.6022 12.5 18.2208 12.6581 17.9395 12.9395C17.6581 13.2208 17.5 13.6022 17.5 14C17.5 14.3978 17.6581 14.7792 17.9395 15.0605C18.2208 15.3419 18.6022 15.5 19 15.5H20.5V12.5H19ZM5 4.5C4.60217 4.5 4.22076 4.65815 3.93945 4.93945C3.65815 5.22076 3.5 5.60217 3.5 6C3.5 6.39783 3.65815 6.77924 3.93945 7.06055C4.22076 7.34185 4.60217 7.5 5 7.5H16.5V6C16.5 5.60217 16.3419 5.22076 16.0605 4.93945C15.7792 4.65815 15.3978 4.5 15 4.5H5Z" fill="black" stroke="#F76627"/>
</svg>
